HIERARCHY
ROOT Hips
{
	OFFSET 0.00000 0.00000 0.00000
	CHANNELS 6 Xposition Yposition Zposition Zrotation Yrotation Xrotation 
	JOINT LHipJoint
	{
		OFFSET 0 0 0
		CHANNELS 3 Zrotation Yrotation Xrotation
		JOINT LeftUpLeg
		{
			OFFSET 2.10660 -1.59283 1.11709
			CHANNELS 3 Zrotation Yrotation Xrotation
			JOINT LeftLeg
			{
				OFFSET 2.03633 -5.59477 0.00000
				CHANNELS 3 Zrotation Yrotation Xrotation
				JOINT LeftFoot
				{
					OFFSET 2.74354 -7.53782 0.00000
					CHANNELS 3 Zrotation Yrotation Xrotation
					JOINT LeftToeBase
					{
						OFFSET 0.09177 -0.25215 1.99109
						CHANNELS 3 Zrotation Yrotation Xrotation
						End Site
						{
							OFFSET 0.00000 -0.00000 1.01710
						}
					}
				}
			}
		}
	}
	JOINT RHipJoint
	{
		OFFSET 0 0 0
		CHANNELS 3 Zrotation Yrotation Xrotation
		JOINT RightUpLeg
		{
			OFFSET -1.86456 -1.59283 1.11709
			CHANNELS 3 Zrotation Yrotation Xrotation
			JOINT RightLeg
			{
				OFFSET -2.09328 -5.75123 0.00000
				CHANNELS 3 Zrotation Yrotation Xrotation
				JOINT RightFoot
				{
					OFFSET -2.65375 -7.29113 0.00000
					CHANNELS 3 Zrotation Yrotation Xrotation
					JOINT RightToeBase
					{
						OFFSET -0.08891 -0.24428 1.95541
						CHANNELS 3 Zrotation Yrotation Xrotation
						End Site
						{
							OFFSET -0.00000 -0.00000 0.99928
						}
					}
				}
			}
		}
	}
	JOINT LowerBack
	{
		OFFSET 0 0 0
		CHANNELS 3 Zrotation Yrotation Xrotation
		JOINT Spine
		{
			OFFSET -0.11002 1.82513 -0.30878
			CHANNELS 3 Zrotation Yrotation Xrotation
			JOINT Spine1
			{
				OFFSET 0.02136 1.89008 0.15052
				CHANNELS 3 Zrotation Yrotation Xrotation
				JOINT Neck
				{
					OFFSET 0 0 0
					CHANNELS 3 Zrotation Yrotation Xrotation
					JOINT Neck1
					{
						OFFSET -0.02611 1.82648 0.12298
						CHANNELS 3 Zrotation Yrotation Xrotation
						JOINT Head
						{
							OFFSET 0.06033 1.80858 -0.32888
							CHANNELS 3 Zrotation Yrotation Xrotation
							End Site
							{
								OFFSET 0.01403 1.85203 -0.12607
							}
						}
					}
				}
				JOINT LeftShoulder
				{
					OFFSET 0 0 0
					CHANNELS 3 Zrotation Yrotation Xrotation
					JOINT LeftArm
					{
						OFFSET 3.64598 0.79256 -0.42249
						CHANNELS 3 Zrotation Yrotation Xrotation
						JOINT LeftForeArm
						{
							OFFSET 4.92383 -0.00000 0.00000
							CHANNELS 3 Zrotation Yrotation Xrotation
							JOINT LeftHand
							{
								OFFSET 2.65826 -0.00000 0.00000
								CHANNELS 3 Zrotation Yrotation Xrotation
								JOINT LeftFingerBase
								{
									OFFSET 0 0 0
									CHANNELS 3 Zrotation Yrotation Xrotation
									JOINT LeftHandIndex1
									{
										OFFSET 0.73343 -0.00000 0.00000
										CHANNELS 3 Zrotation Yrotation Xrotation
										End Site
										{
											OFFSET 0.59131 -0.00000 0.00000
										}
									}
								}
								JOINT LThumb
								{
									OFFSET 0 0 0
									CHANNELS 3 Zrotation Yrotation Xrotation
									End Site
									{
										OFFSET 0.60034 -0.00000 0.60034
									}
								}
							}
						}
					}
				}
				JOINT RightShoulder
				{
					OFFSET 0 0 0
					CHANNELS 3 Zrotation Yrotation Xrotation
					JOINT RightArm
					{
						OFFSET -3.83899 0.50520 -0.46242
						CHANNELS 3 Zrotation Yrotation Xrotation
						JOINT RightForeArm
						{
							OFFSET -4.63604 -0.00000 0.00000
							CHANNELS 3 Zrotation Yrotation Xrotation
							JOINT RightHand
							{
								OFFSET -2.86243 -0.00000 -0.00000
								CHANNELS 3 Zrotation Yrotation Xrotation
								JOINT RightFingerBase
								{
									OFFSET 0 0 0
									CHANNELS 3 Zrotation Yrotation Xrotation
									JOINT RightHandIndex1
									{
										OFFSET -0.75891 -0.00000 0.00000
										CHANNELS 3 Zrotation Yrotation Xrotation
										End Site
										{
											OFFSET -0.61185 -0.00000 0.00000
										}
									}
								}
								JOINT RThumb
								{
									OFFSET 0 0 0
									CHANNELS 3 Zrotation Yrotation Xrotation
									End Site
									{
										OFFSET -0.62119 -0.00000 0.62119
									}
								}
							}
						}
					}
				}
			}
		}
	}
}
MOTION
Frames: 6
Frame Time: .0083333
0.028100 16.220600 -25.284800 5.302800 -2.208700 0.721900 0.000000 0.000000 0.000000 -34.682200 -11.753100 4.704400 1.128900 6.748400 18.972200 0.833700 3.891300 -19.082300 0.641300 5.123100 14.260100 0.000000 0.000000 0.000000 11.223500 16.574800 -30.433400 -6.221100 -14.639200 45.862700 -0.133400 -4.005900 -9.547000 -0.353700 3.821000 -10.573700 -9.353100 0.514600 13.927400 1.297100 -0.931800 -4.291800 6.990000 0.365700 -12.524900 -3.477600 -4.441000 -8.968700 2.395200 -6.010200 18.047900 0.814000 -2.919400 7.180500 -0.000000 -0.000000 0.000000 -87.828600 -2.058800 25.562300 13.999800 -22.734400 -2.828000 -0.000000 0.000000 -4.079100 6.959300 17.671200 2.122000 -7.125000 0.000000 -0.000000 -19.870200 46.756200 -0.895700 -0.000000 -0.000000 0.000000 84.694100 -10.430900 24.427600 -16.404400 26.065900 -3.821900 0.000000 0.000000 0.883100 -10.066400 18.673100 -3.253000 7.125000 -0.000000 -0.000000 11.773300 -11.337000 9.435700
0.027800 16.227800 -25.169800 5.338700 -1.870800 0.787600 0.000000 0.000000 0.000000 -34.772800 -11.526100 5.810800 0.997000 6.354300 17.816000 0.808700 3.953600 -18.867300 0.598700 4.953300 13.775400 0.000000 0.000000 0.000000 10.969000 17.088600 -30.085500 -5.634000 -14.064000 43.494500 -0.092200 -4.656500 -9.254500 -0.330000 3.692200 -10.212400 -9.207600 0.402900 13.730600 1.176200 -1.039700 -4.115500 6.785400 0.270600 -12.180500 -3.308100 -4.470000 -9.377300 2.538700 -6.086800 17.887000 0.817300 -2.928100 7.202000 0.000000 -0.000000 0.000000 -87.696800 -2.482300 25.610700 14.245000 -23.083800 -2.923500 -0.000000 0.000000 -4.028000 6.695800 17.190100 1.987100 -7.125000 0.000000 -0.000000 -19.916500 46.269300 -0.649400 0.000000 -0.000000 0.000000 85.082800 -10.418200 23.496400 -16.122700 25.686700 -3.699000 0.000000 0.000000 1.461500 -10.143100 18.480000 -3.245600 7.125000 -0.000000 -0.000000 11.724200 -11.521700 9.349000
0.027200 16.238700 -25.058200 5.512100 -1.538100 0.882000 0.000000 0.000000 0.000000 -34.977400 -11.330900 6.848300 0.874100 5.960700 16.670300 0.790700 3.936100 -18.673400 0.608100 4.991300 13.883800 0.000000 0.000000 0.000000 10.485200 17.680500 -29.802600 -5.078700 -13.471900 41.161800 -0.039500 -5.414300 -8.833700 -0.403100 4.076000 -11.290600 -9.461500 0.239600 13.740600 1.234300 -1.307800 -4.247200 7.062400 0.177900 -12.286500 -3.483400 -4.441600 -8.846900 2.581300 -6.034500 17.595800 0.879400 -2.918900 7.019200 0.000000 -0.000000 0.000000 -87.845600 -2.183400 25.755700 14.626400 -23.623100 -3.074700 -0.000000 0.000000 -4.238400 6.504100 17.494400 1.962900 -7.125000 0.000000 -0.000000 -20.208200 46.531400 -0.795700 0.000000 -0.000000 0.000000 85.001100 -10.916500 23.025100 -15.796200 25.243600 -3.558600 0.000000 0.000000 1.885700 -10.149400 18.673800 -3.280500 7.125000 -0.000000 -0.000000 11.719600 -11.329300 9.392600
0.021700 16.239100 -24.962300 5.469600 -1.972700 1.163900 0.000000 0.000000 0.000000 -34.929800 -10.925900 7.406300 0.769900 5.602900 15.636600 0.781700 4.124900 -18.695000 0.603200 4.971300 13.826900 0.000000 0.000000 0.000000 10.146900 19.057900 -29.742100 -4.541700 -12.848300 38.803400 0.016100 -6.194900 -8.390900 -0.314700 3.606100 -9.971000 -9.656100 0.324800 13.648800 1.339700 -1.217700 -4.445100 7.274400 0.260200 -12.478600 -3.663700 -4.400200 -8.331600 2.676900 -5.977900 17.391200 0.958200 -2.902500 6.869300 -0.000000 0.000000 0.000000 -87.935000 -1.971200 26.071900 14.949700 -24.075900 -3.205400 -0.000000 0.000000 -4.481600 6.428900 18.022200 1.996600 -7.125000 0.000000 -0.000000 -20.489500 47.017200 -1.063100 -0.000000 0.000000 0.000000 84.946600 -11.433800 22.554300 -15.470600 24.797500 -3.420900 0.000000 0.000000 2.303200 -10.090800 18.666500 -3.259900 7.125000 -0.000000 -0.000000 11.757500 -11.341400 9.421400
0.014900 16.235400 -24.863400 5.418700 -2.088300 1.441400 0.000000 0.000000 0.000000 -34.863100 -10.630700 8.110500 0.664100 5.211900 14.513800 0.756600 4.268100 -18.523400 0.565500 4.816500 13.385800 0.000000 0.000000 0.000000 9.789100 20.229400 -29.466500 -4.045000 -12.220000 36.514900 0.050600 -6.870300 -8.456600 -0.192400 2.825100 -7.792100 -9.628400 0.404500 13.609100 1.304100 -1.107400 -4.489500 7.191900 0.312700 -12.529400 -3.478200 -4.438600 -8.540300 2.683100 -6.049900 17.289500 0.919600 -2.922400 6.869800 -0.000000 0.000000 0.000000 -87.776100 -2.161600 26.798900 15.253000 -24.497400 -3.330200 -0.000000 0.000000 -5.064400 6.342400 18.347100 2.003800 -7.125000 0.000000 -0.000000 -20.702200 47.310400 -1.230900 -0.000000 0.000000 0.000000 85.291200 -11.647400 21.546600 -15.186600 24.405400 -3.302700 0.000000 0.000000 2.847200 -9.922700 18.206600 -3.128600 7.125000 -0.000000 -0.000000 11.868500 -11.810400 9.397000
0.009800 16.239600 -24.754000 5.322000 -2.140100 1.555900 0.000000 0.000000 0.000000 -34.811900 -10.377800 9.031600 0.573000 4.847700 13.474800 0.727000 4.619700 -18.437000 0.491000 4.493000 12.467900 0.000000 0.000000 0.000000 9.486300 21.555600 -28.866000 -3.589900 -11.593600 34.309200 0.083200 -7.715000 -8.968000 -0.140400 2.414700 -6.653300 -9.565700 0.361900 13.622000 1.356500 -1.149000 -4.506800 7.226100 0.292700 -12.547900 -3.488000 -4.452800 -8.676200 2.652700 -6.058800 17.309400 0.907300 -2.928200 6.899900 0.000000 0.000000 0.000000 -87.726900 -2.258700 27.116800 15.541500 -24.895100 -3.450700 -0.000000 0.000000 -5.586500 6.222300 18.533600 1.984800 -7.125000 0.000000 -0.000000 -20.889100 47.468700 -1.327800 0.000000 0.000000 0.000000 85.431700 -11.939400 20.882000 -14.886400 23.987600 -3.179600 0.000000 0.000000 3.526600 -10.230700 19.310200 -3.415500 7.125000 -0.000000 -0.000000 11.667000 -10.692400 9.504200
